# 3ds Max Wavefront OBJ Exporter v0.97b - (c)2007 guruware
# File Created: 02.07.2015 23:32:18

mtllib pyramid.mtl

#
# object pyramid
#

v  -4.3542 -5.0000 4.1356
v  -4.3542 -5.0000 -4.1356
v  4.3833 -5.0000 -4.1356
v  4.3833 -5.0000 4.1356
v  -2.1264 5.0000 2.0129
v  2.1264 5.0000 2.0129
v  2.1264 5.0000 -2.0129
v  -2.1264 5.0000 -2.0129
v  2.1264 3.0615 2.0129
v  -2.1264 3.0615 2.0129
v  2.1264 3.0615 -2.0129
v  -2.1264 3.0615 -2.0129
# 12 vertices

vn 0.0000 -1.0000 -0.0000
vn 0.0000 1.0000 -0.0000
vn -0.0000 0.2546 0.9670
vn 0.0000 0.2546 0.9670
vn 0.9630 0.2696 0.0000
vn 0.9630 0.2696 -0.0000
vn 0.0000 0.2546 -0.9670
vn -0.9639 0.2664 0.0000
vn -0.9639 0.2664 -0.0000
vn -0.0000 -0.0000 1.0000
vn 0.0000 -0.0000 1.0000
vn 1.0000 0.0000 -0.0000
vn 0.0000 0.0000 -1.0000
vn -1.0000 0.0000 -0.0000
# 14 vertex normals

vt 0.9656 0.0228 0.0000
vt 0.9656 0.2841 0.0000
vt 0.6895 0.2841 0.0000
vt 0.6895 0.0228 0.0000
vt 0.9682 0.2920 0.0000
vt 0.6823 0.2920 0.0000
vt 0.6823 0.0213 0.0000
vt 0.9682 0.0213 0.0000
vt 0.0203 0.9877 0.0000
vt 0.0128 0.1378 0.0000
vt 0.7989 0.3505 0.0000
vt 0.8025 0.7641 0.0000
vt 0.0155 0.9645 0.0000
vt 0.0084 0.1599 0.0000
vt 0.7944 0.3595 0.0000
vt 0.7979 0.7511 0.0000
vt 0.0202 0.9829 0.0000
vt 0.0128 0.1329 0.0000
vt 0.7988 0.3428 0.0000
vt 0.8025 0.7564 0.0000
vt 0.0155 0.9651 0.0000
vt 0.0084 0.1605 0.0000
vt 0.7944 0.3601 0.0000
vt 0.7979 0.7517 0.0000
vt 0.9875 0.3488 0.0000
vt 0.9911 0.7625 0.0000
vt 0.9830 0.3578 0.0000
vt 0.9864 0.7494 0.0000
vt 0.9874 0.3411 0.0000
vt 0.9910 0.7548 0.0000
vt 0.9830 0.3585 0.0000
vt 0.9864 0.7501 0.0000
# 32 texture coords

g pyramid
usemtl Material__27
s 2
f 1/1/1 2/2/1 3/3/1 
f 3/3/1 4/4/1 1/1/1 
s 4
f 5/5/2 6/6/2 7/7/2 
f 7/7/2 8/8/2 5/5/2 
s 8
f 1/9/3 4/10/4 9/11/3 
f 9/11/3 10/12/3 1/9/3 
s 16
f 4/13/5 3/14/6 11/15/5 
f 11/15/5 9/16/5 4/13/5 
s 32
f 3/17/7 2/18/7 12/19/7 
f 12/19/7 11/20/7 3/17/7 
s 64
f 2/21/8 1/22/9 10/23/8 
f 10/23/8 12/24/8 2/21/8 
s off
f 10/12/10 9/11/10 6/25/10 
f 6/25/11 5/26/11 10/12/11 
f 9/16/12 11/15/12 7/27/12 
f 7/27/12 6/28/12 9/16/12 
f 11/20/13 12/19/13 8/29/13 
f 8/29/13 7/30/13 11/20/13 
f 12/24/14 10/23/14 5/31/14 
f 5/31/14 8/32/14 12/24/14 
# 20 faces

